<?xml version="1.0" encoding="UTF-8" standalone="no"?>
<svg
   xmlns:dc="http://purl.org/dc/elements/1.1/"
   xmlns:cc="http://creativecommons.org/ns#"
   xmlns:rdf="http://www.w3.org/1999/02/22-rdf-syntax-ns#"
   xmlns:svg="http://www.w3.org/2000/svg"
   xmlns="http://www.w3.org/2000/svg"
   xmlns:sodipodi="http://sodipodi.sourceforge.net/DTD/sodipodi-0.dtd"
   xmlns:inkscape="http://www.inkscape.org/namespaces/inkscape"
   width="500"
   height="500"
   viewBox="0 0 500 500.00002"
   version="1.1"
   id="svg8"
   inkscape:version="1.0.1 (3bc2e813f5, 2020-09-07)"
   sodipodi:docname="wrapping-text-around.svg">
  <defs
     id="defs2" />
  <sodipodi:namedview
     id="base"
     pagecolor="#ffffff"
     bordercolor="#666666"
     borderopacity="1.0"
     inkscape:pageopacity="0.0"
     inkscape:pageshadow="2"
     inkscape:zoom="1.4"
     inkscape:cx="233.65401"
     inkscape:cy="249.2343"
     inkscape:document-units="px"
     inkscape:current-layer="layer1"
     inkscape:document-rotation="0"
     showgrid="false"
     units="px"
     inkscape:window-width="1920"
     inkscape:window-height="1017"
     inkscape:window-x="-8"
     inkscape:window-y="-8"
     inkscape:window-maximized="1" />
  <metadata
     id="metadata5">
    <rdf:RDF>
      <cc:Work
         rdf:about="">
        <dc:format>image/svg+xml</dc:format>
        <dc:type
           rdf:resource="http://purl.org/dc/dcmitype/StillImage" />
        <dc:title></dc:title>
      </cc:Work>
    </rdf:RDF>
  </metadata>
  <g
     inkscape:label="Layer 1"
     inkscape:groupmode="layer"
     id="layer1">
    <circle
       style="fill:#000000;fill-opacity:1;stroke:#000000;stroke-width:2.26673"
       id="path12"
       cx="-85.787674"
       cy="323.37381"
       r="141.40085"
       transform="matrix(-0.85012147,0.52658663,0.52658663,0.85012147,0,0)" />
    <g
       aria-label="WRAP YOUR TEXT"
       id="text16"
       style="font-style:normal;font-variant:normal;font-weight:normal;font-stretch:normal;font-size:40px;line-height:1.25;font-family:Bangers;-inkscape-font-specification:'Bangers, @wght=400,wdth=100.0';font-variant-ligatures:normal;font-variant-caps:normal;font-variant-numeric:normal;font-variant-east-asian:normal;font-variation-settings:'wdth' 100, 'wght' 400;letter-spacing:2.5px;word-spacing:0px;fill:#ff0000;fill-opacity:1;stroke:none"
       transform="translate(4.2857143,-37.857142)">
      <path
         d="m 149.19262,327.86448 q -0.0627,0.0466 -15.85338,8.2658 l 0.37253,0.50184 q 3.99991,-1.55845 7.48278,-2.83038 3.51423,-1.29521 4.81347,-1.7732 2.84941,-1.14223 4.35205,-1.67391 l 0.20955,0.28229 q 1.16416,1.56825 2.92234,3.08474 -0.32885,0.14682 -1.30828,0.72794 -0.92479,0.5892 -2.30389,1.41836 -1.34773,0.80588 -2.97775,1.8213 -1.59866,0.99214 -3.16594,1.961 -2.82901,1.75953 -5.36766,3.25486 l 0.44239,0.59594 16.05909,-7.20228 q 0.97174,0.98136 1.84227,1.89191 2.30082,2.37854 3.33529,3.31333 -4.56968,1.44627 -9.56422,3.49984 -11.77401,4.84834 -17.00428,7.17418 l -6.60169,-6.33726 13.43693,-7.78551 -0.30268,-0.40775 -13.98804,5.47027 -6.15123,-5.79598 24.61846,-14.48054 q 1.18033,1.45896 2.37779,2.6133 1.25211,1.16243 2.3241,2.40991 z"
         style="font-style:normal;font-variant:normal;font-weight:normal;font-stretch:normal;font-size:40px;font-family:Bangers;-inkscape-font-specification:'Bangers, @wght=400,wdth=100.0';font-variant-ligatures:normal;font-variant-caps:normal;font-variant-numeric:normal;font-variant-east-asian:normal;font-variation-settings:'wdth' 100, 'wght' 400"
         id="path903" />
      <path
         d="m 144.42167,364.94865 q 5.20325,-9.73981 6.12135,-10.86219 l -0.47417,-0.23968 q -5.91404,4.28321 -8.93828,6.52278 l -5.83596,-3.28785 q 16.55515,-11.33543 22.91938,-16.64932 4.23941,2.13007 8.29125,6.03176 3.03888,2.92626 1.56951,5.5785 -0.45436,0.80974 -1.37559,1.76643 -0.92123,0.95668 -2.39897,1.70286 -1.45063,0.71805 -3.10136,1.08073 -3.38483,0.6993 -6.4956,-0.18126 -1.17861,3.42028 -2.36661,6.34347 -1.13276,2.92214 -1.92372,4.92617 z m 16.29456,-16.35849 -1.26516,-1.16405 -5.34504,3.69232 q 1.23389,0.97126 4.22377,1.30158 3.07324,0.35637 3.91319,-0.5159 0.78576,-0.81599 -0.65344,-2.41877 -0.42311,-0.46166 -0.87332,-0.89518 z"
         style="font-style:normal;font-variant:normal;font-weight:normal;font-stretch:normal;font-size:40px;font-family:Bangers;-inkscape-font-specification:'Bangers, @wght=400,wdth=100.0';font-variant-ligatures:normal;font-variant-caps:normal;font-variant-numeric:normal;font-variant-east-asian:normal;font-variation-settings:'wdth' 100, 'wght' 400"
         id="path905" />
      <path
         d="m 160.13945,369.7799 -4.65395,3.72538 q -0.7977,-0.42965 -1.87186,-1.01013 -1.04246,-0.55766 -2.08492,-1.11532 -1.01964,-0.58937 -2.12551,-1.19266 4.40297,-3.37661 7.43547,-5.71817 3.06421,-2.31873 5.0039,-3.81043 1.96251,-1.5234 3.84768,-3.0062 1.93969,-1.4917 3.70188,-2.87049 1.81672,-1.38769 3.27845,-2.54958 6.1623,3.80882 9.67134,5.41957 -2.54417,2.9336 -5.8146,7.07707 -6.54974,8.23242 -12.01438,15.22444 -1.06528,-0.52595 -2.07603,-1.0608 -0.97904,-0.51203 -2.07603,-1.0608 -1.06527,-0.52595 -1.9492,-0.96953 2.53913,-2.79284 4.54963,-5.05171 z m 3.08821,-2.68647 2.46036,1.52987 q 0.13689,-0.19024 0.48803,-0.61132 0.40565,-0.42996 0.90257,-0.98675 2.69499,-3.21006 5.07944,-5.92171 l 2.25259,-2.66216 -0.53012,-0.33335 z"
         style="font-style:normal;font-variant:normal;font-weight:normal;font-stretch:normal;font-size:40px;font-family:Bangers;-inkscape-font-specification:'Bangers, @wght=400,wdth=100.0';font-variant-ligatures:normal;font-variant-caps:normal;font-variant-numeric:normal;font-variant-east-asian:normal;font-variation-settings:'wdth' 100, 'wght' 400"
         id="path907" />
      <path
         d="m 166.06709,382.23816 q 12.21536,-14.15575 18.29061,-22.29178 4.39724,0.88831 6.29208,1.90091 1.89484,1.01261 2.66826,2.13458 0.82629,1.10592 1.03663,2.36989 0.34049,2.26361 -1.29809,5.3298 -1.04943,1.96374 -2.76711,3.4375 -1.69926,1.4393 -3.67833,2.24188 -1.96066,0.76813 -4.00571,0.78252 -2.02664,-0.0201 -3.71477,-0.92221 l -0.37897,-0.20252 q -2.2011,2.54413 -5.70228,7.27237 z m 21.50733,-16.54232 q -3.56533,4.5168 -6.35085,7.98875 1.40596,0.35273 3.3761,-0.76466 2.16554,-1.23441 3.41749,-3.57712 0.69962,-1.30916 0.46375,-2.27673 -0.21745,-1.00202 -0.90649,-1.37024 z"
         style="font-style:normal;font-variant:normal;font-weight:normal;font-stretch:normal;font-size:40px;font-family:Bangers;-inkscape-font-specification:'Bangers, @wght=400,wdth=100.0';font-variant-ligatures:normal;font-variant-caps:normal;font-variant-numeric:normal;font-variant-east-asian:normal;font-variation-settings:'wdth' 100, 'wght' 400"
         id="path909" />
      <path
         d="m 206.42899,380.97573 q 2.16665,-2.68836 7.49657,-10.1299 l 5.54282,3.11801 q -3.33026,3.5589 -6.0104,6.45834 l -3.89426,4.20377 q -1.16536,1.27835 -2.30795,2.48197 -1.10522,1.21501 -2.04141,2.27734 -1.42575,2.66909 -3.8738,6.41511 l -6.78963,-1.17027 4.1015,-7.16245 q 1.41171,-4.63346 2.74576,-10.3523 1.33405,-5.71885 1.52117,-6.60105 l 0.17573,-0.84483 6.96885,-0.49021 -2.02649,6.65126 -1.17584,3.72528 z"
         style="font-style:normal;font-variant:normal;font-weight:normal;font-stretch:normal;font-size:40px;font-family:Bangers;-inkscape-font-specification:'Bangers, @wght=400,wdth=100.0';font-variant-ligatures:normal;font-variant-caps:normal;font-variant-numeric:normal;font-variant-east-asian:normal;font-variation-settings:'wdth' 100, 'wght' 400"
         id="path911" />
      <path
         d="m 227.24756,383.85907 q 0.50931,-3.20194 -1.34242,-3.49648 -2.35322,-0.37431 -4.6117,1.63966 -1.79906,1.61241 -3.38854,4.64253 -1.26598,2.48827 -1.63415,4.80292 -0.24545,1.5431 0.94346,2.52329 0.34282,0.3314 0.84433,0.41117 1.77456,0.28227 3.315,-0.69886 1.58515,-1.01358 2.79328,-2.64087 1.20813,-1.6273 1.99015,-3.55969 0.82673,-1.96484 1.09059,-3.62367 z m 5.86459,-1.55904 q -0.37431,2.35323 -1.52279,5.09752 -1.10991,2.75042 -2.64768,4.95813 -1.53777,2.20772 -3.38155,3.85257 -1.8052,1.65098 -3.67267,2.69876 -3.86294,2.1543 -7.02629,1.65113 -2.66185,-0.42341 -3.89814,-2.59773 -1.35992,-2.39176 -0.71561,-6.4424 0.69954,-4.39784 3.55413,-9.16485 2.8546,-4.76701 6.71226,-7.63411 4.16452,-3.05562 8.09942,-2.42972 3.24051,0.51545 4.32777,3.37803 0.85841,2.31199 0.17115,6.63267 z"
         style="font-style:normal;font-variant:normal;font-weight:normal;font-stretch:normal;font-size:40px;font-family:Bangers;-inkscape-font-specification:'Bangers, @wght=400,wdth=100.0';font-variant-ligatures:normal;font-variant-caps:normal;font-variant-numeric:normal;font-variant-east-asian:normal;font-variation-settings:'wdth' 100, 'wght' 400"
         id="path913" />
      <path
         d="m 235.40146,374.10075 q 0.86022,-0.0682 1.99431,-0.17228 1.17315,-0.10364 2.26773,-0.16912 1.13409,-0.1041 2.3463,-0.20729 -1.07107,4.79264 -1.68946,7.59818 -0.61839,2.80554 -0.98934,4.48106 -0.37095,1.67551 -0.66061,3.07851 -0.65926,2.96133 -0.86494,3.85745 -0.61704,2.68836 -0.62606,3.46956 -0.009,0.7812 0.29848,1.21447 0.34703,0.39466 0.89387,0.40098 0.5859,0.007 1.02187,-0.53511 0.47504,-0.54142 0.75704,-1.2804 0.32105,-0.73853 0.48632,-1.51792 0.16526,-0.77939 0.33053,-1.55879 0.20477,-0.818 0.49444,-2.22099 0.32918,-1.44161 0.6202,-2.96179 0.33053,-1.55878 0.66151,-3.15663 0.86765,-4.09181 2.03399,-10.36781 l 6.05879,-0.32065 -0.20703,1.0133 q -0.49715,2.45536 -1.12051,5.69056 -0.58385,3.19659 -1.07964,5.53477 -1.28126,6.07935 -1.89695,8.65054 -0.61523,2.53212 -1.68835,4.12139 -1.03406,1.58972 -2.41335,2.62854 -2.63957,1.92276 -6.07684,1.88304 -2.10924,-0.0244 -3.61903,-1.21376 -1.70239,-1.42602 -1.67577,-3.73055 0.002,-0.15624 0.004,-0.31248 0.002,-0.15624 0.0903,-1.05371 0.12756,-0.89703 0.50573,-3.1975 0.37861,-2.33953 0.7981,-4.83485 0.45899,-2.53393 0.95704,-5.06741 0.49806,-2.53348 0.91258,-4.59914 0.91076,-4.4429 1.07513,-5.14417 z"
         style="font-style:normal;font-variant:normal;font-weight:normal;font-stretch:normal;font-size:40px;font-family:Bangers;-inkscape-font-specification:'Bangers, @wght=400,wdth=100.0';font-variant-ligatures:normal;font-variant-caps:normal;font-variant-numeric:normal;font-variant-east-asian:normal;font-variation-settings:'wdth' 100, 'wght' 400"
         id="path915" />
      <path
         d="m 261.04833,400.37603 q -4.3451,-10.15173 -4.6466,-11.57009 l -0.48359,0.22006 q -0.35701,7.29345 -0.50112,11.05389 l -6.21553,2.49711 q 1.51008,-20.00712 1.34448,-28.29647 4.31358,-1.97555 9.89216,-2.69666 4.18394,-0.54084 5.33433,2.26452 0.34762,0.86098 0.51788,2.17815 0.17026,1.31716 -0.17179,2.93688 -0.34706,1.58097 -1.09655,3.09581 -1.57144,3.07842 -4.20417,4.95485 1.93151,3.05887 3.4693,5.81415 1.57152,2.71154 2.64046,4.58212 z m -2.57217,-22.94552 -1.69956,0.25908 -0.46216,6.4799 q 1.52957,-0.35527 3.65736,-2.48153 2.20026,-2.17501 2.04502,-3.37596 -0.14522,-1.12346 -2.29597,-1.003 -0.62485,0.0414 -1.24469,0.12151 z"
         style="font-style:normal;font-variant:normal;font-weight:normal;font-stretch:normal;font-size:40px;font-family:Bangers;-inkscape-font-specification:'Bangers, @wght=400,wdth=100.0';font-variant-ligatures:normal;font-variant-caps:normal;font-variant-numeric:normal;font-variant-east-asian:normal;font-variation-settings:'wdth' 100, 'wght' 400"
         id="path917" />
      <path
         d="m 275.28325,373.60908 -1.49639,-4.89741 q 1.96986,-0.51963 3.9253,-1.19968 5.16531,-1.79634 9.85422,-4.13008 l 0.29986,2.17037 q 0.11064,0.91274 0.24694,1.89927 0.16036,0.9368 0.24374,1.65224 -0.7716,0.51648 -1.58169,0.92228 -0.82292,0.3689 -1.58329,0.79877 0.32388,3.07187 1.1225,7.50887 1.75762,9.81079 2.64287,14.25901 l -6.41659,3.43087 q -1.88729,-15.05943 -3.6129,-23.35113 -0.92397,0.19726 -1.79662,0.5421 -0.87265,0.34484 -1.84795,0.39452 z"
         style="font-style:normal;font-variant:normal;font-weight:normal;font-stretch:normal;font-size:40px;font-family:Bangers;-inkscape-font-specification:'Bangers, @wght=400,wdth=100.0';font-variant-ligatures:normal;font-variant-caps:normal;font-variant-numeric:normal;font-variant-east-asian:normal;font-variation-settings:'wdth' 100, 'wght' 400"
         id="path919" />
      <path
         d="m 295.4319,391.31633 -7.71322,-27.86748 10.90721,-6.51228 q 0.14647,0.92764 0.34616,1.786 0.18263,0.82323 0.36526,1.64646 0.18263,0.82323 0.35022,1.43664 -1.00298,0.61731 -2.8302,1.50458 l -2.42457,1.17734 1.87458,7.07981 q 1.88145,-1.04388 3.16452,-1.71035 1.28307,-0.66647 1.65254,-0.8893 0.35427,1.08728 0.69147,2.13942 0.35529,0.99993 0.67442,2.10427 -0.36947,0.22283 -1.1606,0.65042 -0.80819,0.39245 -1.6696,0.85416 -0.8614,0.46171 -1.93364,1.0258 l 1.99504,7.23844 4.82617,-3.38571 1.64497,4.28187 z"
         style="font-style:normal;font-variant:normal;font-weight:normal;font-stretch:normal;font-size:40px;font-family:Bangers;-inkscape-font-specification:'Bangers, @wght=400,wdth=100.0';font-variant-ligatures:normal;font-variant-caps:normal;font-variant-numeric:normal;font-variant-east-asian:normal;font-variation-settings:'wdth' 100, 'wght' 400"
         id="path921" />
      <path
         d="m 312.92253,373.13947 q 0.75348,3.60729 1.32792,8.44738 l -6.02378,3.20232 q -0.25975,-4.06658 -0.47705,-8.06759 -0.20574,-4.05503 -0.85519,-8.14851 -2.73075,-3.21121 -4.88048,-5.30948 -2.17096,-2.13105 -3.42145,-3.41549 l 3.93374,-5.71152 q 1.20425,1.50052 2.66516,3.25368 1.46092,1.75315 2.6864,3.28646 -0.95094,-5.85278 -1.2489,-8.68469 l 5.73482,-1.85183 q 0.24138,7.05679 1.2834,14.20015 2.24055,2.59789 5.10811,5.30169 2.87912,2.64978 4.17396,3.85896 -0.0444,0.0753 -0.37413,0.42839 -0.32978,0.35314 -0.84662,0.92047 -0.48405,0.5461 -1.05679,1.2427 -0.59398,0.66382 -1.15517,1.3064 -1.43092,1.67109 -1.78382,2.13227 -0.96883,-1.28066 -1.8315,-2.39738 -0.82989,-1.13795 -1.65011,-2.18909 -0.78743,-1.07237 -1.30852,-1.80529 z"
         style="font-style:normal;font-variant:normal;font-weight:normal;font-stretch:normal;font-size:40px;font-family:Bangers;-inkscape-font-specification:'Bangers, @wght=400,wdth=100.0';font-variant-ligatures:normal;font-variant-caps:normal;font-variant-numeric:normal;font-variant-east-asian:normal;font-variation-settings:'wdth' 100, 'wght' 400"
         id="path923" />
      <path
         d="m 313.39671,353.19661 -3.15038,-4.03719 q 1.65331,-1.19036 3.23572,-2.52534 4.17995,-3.52635 7.72271,-7.38396 l 1.05693,1.9192 q 0.43004,0.81264 0.91047,1.68501 0.48509,0.81731 0.81905,1.45549 -0.53558,0.75847 -1.14672,1.42737 -0.63633,0.63904 -1.19243,1.31261 1.40208,2.75237 3.73612,6.60943 5.15317,8.53145 7.57211,12.368 l -4.76319,5.50049 q -7.15315,-13.38584 -11.73263,-20.51033 -0.79213,0.51495 -1.48351,1.14932 -0.69137,0.63438 -1.58425,1.0299 z"
         style="font-style:normal;font-variant:normal;font-weight:normal;font-stretch:normal;font-size:40px;font-family:Bangers;-inkscape-font-specification:'Bangers, @wght=400,wdth=100.0';font-variant-ligatures:normal;font-variant-caps:normal;font-variant-numeric:normal;font-variant-east-asian:normal;font-variation-settings:'wdth' 100, 'wght' 400"
         id="path925" />
    </g>
    <text
       xml:space="preserve"
       style="font-style:normal;font-weight:normal;font-size:40px;line-height:1.25;font-family:sans-serif;letter-spacing:0px;word-spacing:0px;fill:#000000;fill-opacity:1;stroke:none"
       x="325.71429"
       y="234.28571"
       id="text53"><tspan
         sodipodi:role="line"
         id="tspan51"
         x="325.71429"
         y="234.28571"></tspan></text>
  </g>
</svg>
